<svg id="Layer_1" data-name="Layer 1" xmlns="http://www.w3.org/2000/svg" viewBox="0 0 598.85 624.4"><defs><style>.cls-1{fill:#ededed;stroke:#212121;stroke-width:9px;}.cls-1,.cls-2{stroke-miterlimit:10;}.cls-2,.cls-3{fill:none;}.cls-2{stroke:#fff;stroke-width:2px;}.cls-4{fill:#ed6e57;}.cls-5{fill:#212121;}</style></defs><title>fit_bg_removed</title><circle class="cls-1" cx="297.75" cy="208.25" r="203.75"/><path d="M456.55,508.21h58.07v12.18H470.47v37.39h40.79v12H470.47v50.9H456.55Z" transform="translate(-365.4 -67.61)"/><path d="M548.37,508.21V620.7H534.45V508.21Z" transform="translate(-365.4 -67.61)"/><path d="M565.32,612.19l59.83-91.3v-.5H570.44V508.21h72.79v8.85l-59.51,91v.5H644V620.7H565.32Z" transform="translate(-365.4 -67.61)"/><path d="M675.06,508.21V620.7H661.14V508.21Z" transform="translate(-365.4 -67.61)"/><path d="M699.38,508.21h13.91v54.24h.48c2.88-4.34,5.76-8.34,8.48-12l33-42.23h17.27l-39,47.73,42.07,64.76H759.05l-35.52-55.24-10.24,12.35V620.7H699.38Z" transform="translate(-365.4 -67.61)"/><path d="M805.11,585.32l-11.2,35.38H779.52l36.63-112.49H833L869.74,620.7H854.86l-11.51-35.38ZM840.47,574l-10.56-32.38c-2.4-7.34-4-14-5.6-20.53H824c-1.6,6.68-3.36,13.52-5.44,20.36L808,574Z" transform="translate(-365.4 -67.61)"/><text x="-365.4" y="-67.61"/><path class="cls-2" d="M663.14,275.86" transform="translate(-365.4 -67.61)"/><path class="cls-3" d="M663.14,275.86" transform="translate(-365.4 -67.61)"/><ellipse class="cls-4" cx="323.74" cy="180.25" rx="70.5" ry="72.5"/><path class="cls-5" d="M612.64,452.36h11l-1-193s-6-75,66-75,68,76,68,76v75h12v-76s3-86-81-87-76,90-76,90Z" transform="translate(-365.4 -67.61)"/><rect class="cls-4" x="192.24" y="281.75" width="122" height="11"/><rect class="cls-5" x="318.24" y="31.75" width="10" height="151"/><path d="M392.28,641.9h5.4v21.3a25.26,25.26,0,0,1-.63,6.52,14.46,14.46,0,0,1-1.56,3.67,11.79,11.79,0,0,1-2.27,2.62q-4.46,3.84-11.66,3.84c-4.88,0-8.81-1.27-11.76-3.81a12.41,12.41,0,0,1-2.27-2.65A13.56,13.56,0,0,1,366,669.8a26.66,26.66,0,0,1-.6-6.66V641.9h5.39v21.3c0,3.53.41,6,1.21,7.36a8.58,8.58,0,0,0,3.68,3.31,12.69,12.69,0,0,0,5.83,1.25,11.77,11.77,0,0,0,7.79-2.5,7.82,7.82,0,0,0,2.28-3.16,19.4,19.4,0,0,0,.7-6.26Z" transform="translate(-365.4 -67.61)"/><path d="M409.33,654.71v3.14a9.86,9.86,0,0,1,7.44-3.62,8.27,8.27,0,0,1,4.3,1.19,7.84,7.84,0,0,1,3,3.28,15.68,15.68,0,0,1,1,6.59v14.13h-4.88V665.35q0-3.79-1.16-5.41a4.4,4.4,0,0,0-3.87-1.63c-2.31,0-4.27,1.16-5.88,3.46v17.65h-5V654.71Z" transform="translate(-365.4 -67.61)"/><path d="M448.43,641.9h4.92v37.52H442.9a11.45,11.45,0,0,1-8.74-3.47q-3.27-3.45-3.26-9.29a12.35,12.35,0,0,1,3.42-9,11.69,11.69,0,0,1,8.74-3.52,15.83,15.83,0,0,1,5.37,1.05Zm0,33.33V659.57a10.12,10.12,0,0,0-4.62-1.15,7.43,7.43,0,0,0-5.81,2.39,9.24,9.24,0,0,0-2.16,6.44,8.42,8.42,0,0,0,1.88,5.88,5.81,5.81,0,0,0,2.39,1.67,16,16,0,0,0,4.54.43Z" transform="translate(-365.4 -67.61)"/><path d="M481,667.5H463.66a8.06,8.06,0,0,0,2.38,5.63,7.82,7.82,0,0,0,5.65,2.1,14.7,14.7,0,0,0,8.92-3V677a16.59,16.59,0,0,1-4.47,2.15,18.72,18.72,0,0,1-5.2.64,11.68,11.68,0,0,1-6.61-1.69,12.22,12.22,0,0,1-4-4.55,13.94,13.94,0,0,1-1.52-6.62,13.14,13.14,0,0,1,3.2-9.17,10.69,10.69,0,0,1,8.3-3.53,9.76,9.76,0,0,1,7.84,3.44q2.92,3.44,2.93,9.21Zm-17.27-2.93H476.2a6.82,6.82,0,0,0-1.74-4.51,5.61,5.61,0,0,0-4.19-1.59,6,6,0,0,0-4.31,1.59A7.82,7.82,0,0,0,463.77,664.57Z" transform="translate(-365.4 -67.61)"/><path d="M491.56,654.71v5.67l.27-.43q3.56-5.72,7.09-5.72c1.85,0,3.77.93,5.78,2.79l-2.58,4.3q-2.55-2.42-4.73-2.42a5,5,0,0,0-4.09,2.26,8.47,8.47,0,0,0-1.74,5.34v12.92h-4.91V654.71Z" transform="translate(-365.4 -67.61)"/><path d="M506.9,677.65v-5.27a22.19,22.19,0,0,0,4.23,2.35,9.84,9.84,0,0,0,3.64.9,4.57,4.57,0,0,0,2.63-.75,2.17,2.17,0,0,0,1.1-1.8,2.47,2.47,0,0,0-.71-1.79,17.2,17.2,0,0,0-3.08-2q-4.73-2.62-6.19-4.5a6.47,6.47,0,0,1-1.46-4.07,5.73,5.73,0,0,1,2.21-4.64,8.77,8.77,0,0,1,5.71-1.8,15.71,15.71,0,0,1,7.44,2v4.83q-4.35-2.62-7.12-2.63a3.88,3.88,0,0,0-2.29.61,1.86,1.86,0,0,0-.88,1.6,2.31,2.31,0,0,0,.8,1.64,13.6,13.6,0,0,0,2.77,1.88l1.75,1q6.18,3.49,6.18,7.73a6.13,6.13,0,0,1-2.38,5,9.31,9.31,0,0,1-6.11,2,15,15,0,0,1-3.92-.47A26.14,26.14,0,0,1,506.9,677.65Z" transform="translate(-365.4 -67.61)"/><path d="M525.8,658.63l9.19-9v5.1h7.81v4.41H535v12.09q0,4.23,3.52,4.23a11,11,0,0,0,5.56-1.74v4.56a12.31,12.31,0,0,1-6.15,1.59,8.15,8.15,0,0,1-5.59-2,5.53,5.53,0,0,1-1.15-1.33,7,7,0,0,1-.77-1.93,21.5,21.5,0,0,1-.31-4.56v-11h-4.3Z" transform="translate(-365.4 -67.61)"/><path d="M563.11,664.57v10.5c0,.84.28,1.26.86,1.26a5.88,5.88,0,0,0,2.76-1.32v3a16.47,16.47,0,0,1-2.67,1.46,5.77,5.77,0,0,1-2.11.39c-2.09,0-3.33-.82-3.7-2.47a10.65,10.65,0,0,1-6.64,2.41,5.83,5.83,0,0,1-6-6,6.07,6.07,0,0,1,1.67-4.18,11.27,11.27,0,0,1,4.77-2.91l6.26-2.15v-1.32q0-4.46-4.46-4.46c-2.67,0-5.26,1.38-7.79,4.14v-5.35q2.85-3.35,8.19-3.35a9.48,9.48,0,0,1,6.42,2.09,6.63,6.63,0,0,1,1.45,1.79,6.51,6.51,0,0,1,.82,2.23A31.94,31.94,0,0,1,563.11,664.57Zm-4.81,10V667.2L555,668.46a11.09,11.09,0,0,0-3.53,2,3.62,3.62,0,0,0,0,5,3.44,3.44,0,0,0,2.54,1A6.17,6.17,0,0,0,558.3,674.53Z" transform="translate(-365.4 -67.61)"/><path d="M575.94,654.71v3.14a9.86,9.86,0,0,1,7.44-3.62,8.27,8.27,0,0,1,4.3,1.19,7.84,7.84,0,0,1,3,3.28,15.68,15.68,0,0,1,1,6.59v14.13h-4.88V665.35q0-3.79-1.16-5.41a4.4,4.4,0,0,0-3.87-1.63c-2.3,0-4.27,1.16-5.88,3.46v17.65h-5V654.71Z" transform="translate(-365.4 -67.61)"/><path d="M615,641.9H620v37.52H609.51a11.45,11.45,0,0,1-8.74-3.47q-3.25-3.45-3.26-9.29a12.35,12.35,0,0,1,3.42-9,11.71,11.71,0,0,1,8.74-3.52,15.83,15.83,0,0,1,5.37,1.05Zm0,33.33V659.57a10.11,10.11,0,0,0-4.61-1.15,7.43,7.43,0,0,0-5.82,2.39,9.24,9.24,0,0,0-2.16,6.44,8.42,8.42,0,0,0,1.88,5.88,5.81,5.81,0,0,0,2.39,1.67,16,16,0,0,0,4.54.43Z" transform="translate(-365.4 -67.61)"/><path d="M625.81,685.92v-1a7.05,7.05,0,0,0,1.7-2.32,9.51,9.51,0,0,0,.56-3.18,3.46,3.46,0,0,1-2.85-3.52,3.59,3.59,0,0,1,1-2.51,3.07,3.07,0,0,1,2.33-1.06,3.17,3.17,0,0,1,2.68,1.45,6.17,6.17,0,0,1,1,3.71,8.36,8.36,0,0,1-1.72,5.23A9.16,9.16,0,0,1,625.81,685.92Z" transform="translate(-365.4 -67.61)"/><path d="M655.57,641.69h3.78l16.82,37.73h-5.5l-5-11.12h-16L645,679.42h-5.52Zm7.89,21.83-6.05-13.59-5.61,13.59Z" transform="translate(-365.4 -67.61)"/><path d="M679.28,692v-37.3h8.56q6.57,0,10.23,3.28t3.67,9.16a12.61,12.61,0,0,1-3.45,9.13,11.69,11.69,0,0,1-8.78,3.57,15.32,15.32,0,0,1-5.23-1.05V692Zm8.46-32.73h-3.46v15.2a10.19,10.19,0,0,0,4.72,1.15,7.25,7.25,0,0,0,5.61-2.39,8.73,8.73,0,0,0,2.18-6.15,8.62,8.62,0,0,0-1-4.27,6.31,6.31,0,0,0-2.81-2.7A12.67,12.67,0,0,0,687.74,659.28Z" transform="translate(-365.4 -67.61)"/><path d="M706.78,692v-37.3h8.56q6.57,0,10.23,3.28t3.67,9.16a12.61,12.61,0,0,1-3.45,9.13,11.69,11.69,0,0,1-8.78,3.57,15.32,15.32,0,0,1-5.23-1.05V692Zm8.46-32.73h-3.46v15.2a10.19,10.19,0,0,0,4.72,1.15,7.25,7.25,0,0,0,5.61-2.39,8.73,8.73,0,0,0,2.18-6.15,8.62,8.62,0,0,0-1-4.27,6.31,6.31,0,0,0-2.81-2.7A12.67,12.67,0,0,0,715.24,659.28Z" transform="translate(-365.4 -67.61)"/><path d="M734.71,641.9h4.89v37.52h-4.89Z" transform="translate(-365.4 -67.61)"/><path d="M761.29,654.71h5.49L749.27,692h-5.45l8.38-17.9-9.54-19.4h5.57l6.67,14Z" transform="translate(-365.4 -67.61)"/><path d="M765,685.92v-1a6.87,6.87,0,0,0,1.69-2.32,9.24,9.24,0,0,0,.57-3.18,3.46,3.46,0,0,1-2.85-3.52,3.59,3.59,0,0,1,1-2.51,3.07,3.07,0,0,1,2.33-1.06,3.17,3.17,0,0,1,2.68,1.45,6.17,6.17,0,0,1,1.05,3.71,8.36,8.36,0,0,1-1.72,5.23A9.2,9.2,0,0,1,765,685.92Z" transform="translate(-365.4 -67.61)"/><path d="M794.79,641.69h3.78l16.82,37.73h-5.5l-5-11.12h-16l-4.68,11.12h-5.52Zm7.89,21.83-6-13.59L791,663.52Z" transform="translate(-365.4 -67.61)"/><path d="M837.35,673.65v4.83a20.6,20.6,0,0,1-7.19,1.37,11.86,11.86,0,0,1-12.7-12.65,13.15,13.15,0,0,1,3.35-9.4,11.58,11.58,0,0,1,8.84-3.57,14.84,14.84,0,0,1,3.42.36,22.7,22.7,0,0,1,3.75,1.36v5.21a13,13,0,0,0-6.88-2.37,7,7,0,0,0-5.42,2.33A8.41,8.41,0,0,0,822.4,667a8,8,0,0,0,2.29,6,8.5,8.5,0,0,0,6.19,2.23A16.13,16.13,0,0,0,837.35,673.65Z" transform="translate(-365.4 -67.61)"/><path d="M842.81,641.9h4.88V658a9.45,9.45,0,0,1,7.6-3.73,8.14,8.14,0,0,1,4.43,1.23,7.54,7.54,0,0,1,2.92,3.41,17,17,0,0,1,1,6.48v14.07h-4.88V664.14a6.82,6.82,0,0,0-1.33-4.37,4.3,4.3,0,0,0-3.51-1.65,5.87,5.87,0,0,0-3,.84,13.67,13.67,0,0,0-3.15,2.76v17.7h-4.88Z" transform="translate(-365.4 -67.61)"/><path d="M872.94,644.32a2.91,2.91,0,0,1,2.07.83,2.76,2.76,0,0,1,.86,2,2.94,2.94,0,0,1-2.93,2.9,2.72,2.72,0,0,1-2-.87,2.82,2.82,0,0,1-.86-2,2.78,2.78,0,0,1,.86-2A2.72,2.72,0,0,1,872.94,644.32Zm-2.42,10.39h4.89v24.71h-4.89Z" transform="translate(-365.4 -67.61)"/><path d="M903.53,667.5H886.15a8.06,8.06,0,0,0,2.38,5.63,7.82,7.82,0,0,0,5.65,2.1,14.7,14.7,0,0,0,8.92-3V677a16.59,16.59,0,0,1-4.47,2.15,18.72,18.72,0,0,1-5.2.64,11.68,11.68,0,0,1-6.61-1.69,12.22,12.22,0,0,1-4-4.55,13.94,13.94,0,0,1-1.52-6.62,13.14,13.14,0,0,1,3.2-9.17,10.69,10.69,0,0,1,8.3-3.53,9.76,9.76,0,0,1,7.84,3.44q2.92,3.44,2.93,9.21Zm-17.27-2.93h12.43a6.77,6.77,0,0,0-1.74-4.51,5.61,5.61,0,0,0-4.19-1.59,6,6,0,0,0-4.31,1.59A7.82,7.82,0,0,0,886.26,664.57Z" transform="translate(-365.4 -67.61)"/><path d="M923.12,654.71h5.3l-10.91,25.14h-1.65l-11.18-25.14H910l6.67,15.2Z" transform="translate(-365.4 -67.61)"/><path d="M952,667.5H934.65a8.06,8.06,0,0,0,2.38,5.63,7.82,7.82,0,0,0,5.65,2.1,14.67,14.67,0,0,0,8.92-3V677a16.59,16.59,0,0,1-4.47,2.15,18.72,18.72,0,0,1-5.2.64,11.68,11.68,0,0,1-6.61-1.69,12.22,12.22,0,0,1-4-4.55,13.94,13.94,0,0,1-1.52-6.62,13.14,13.14,0,0,1,3.2-9.17,10.69,10.69,0,0,1,8.3-3.53,9.74,9.74,0,0,1,7.84,3.44q2.92,3.44,2.93,9.21Zm-17.27-2.93h12.43a6.77,6.77,0,0,0-1.74-4.51,5.61,5.61,0,0,0-4.19-1.59,6,6,0,0,0-4.31,1.59A7.82,7.82,0,0,0,934.76,664.57Z" transform="translate(-365.4 -67.61)"/><path d="M960.94,673.43a3.21,3.21,0,0,1,2.34.94,3.13,3.13,0,0,1,1,2.31,3,3,0,0,1-1,2.26,3.28,3.28,0,0,1-2.35.91,3.23,3.23,0,0,1-2.31-.91,3,3,0,0,1-.94-2.26,3.18,3.18,0,0,1,.94-2.31A3.14,3.14,0,0,1,960.94,673.43Z" transform="translate(-365.4 -67.61)"/></svg>